<?xml version="1.0" encoding="utf-8"?><svg xml:space="preserve" viewBox="0 0 100 100" y="0" x="0" xmlns="http://www.w3.org/2000/svg" id="Layer_1" version="1.1" width="53px" height="53px" xmlns:xlink="http://www.w3.org/1999/xlink" style="width:100%;height:100%;background-size:initial;background-repeat-y:initial;background-repeat-x:initial;background-position-y:initial;background-position-x:initial;background-origin:initial;background-image:initial;background-color:rgb(241, 242, 243);background-clip:initial;background-attachment:initial;animation-play-state:paused" ><g class="ldl-scale" style="transform-origin:50% 50%;transform:rotate(0deg) scale(0.8, 0.8);animation-play-state:paused" ><path fill="#323232" d="M78.933 50.066c0 .499-.2.998-.601 1.365l-25.24 31.21v5.568c0 1.612 1.916 2.455 3.104 1.365L88.999 51.43c.4-.367.601-.866.601-1.365s-.2-.998-.601-1.365L56.197 10.556c-1.188-1.089-3.104-.247-3.104 1.365v5.568l25.24 31.21c.4.368.6.868.6 1.367z" id="XMLID_729_" style="fill:rgb(222, 0, 0);animation-play-state:paused" ></path>
<path fill="#999998" d="M57.6 50.066c0 .499-.2.998-.601 1.365l-25.24 31.21v5.568c0 1.612 1.916 2.455 3.104 1.365L67.666 51.43c.4-.367.601-.866.601-1.365s-.2-.998-.601-1.365L34.864 10.556c-1.188-1.089-3.104-.247-3.104 1.365v5.568L57 48.699c.4.368.6.868.6 1.367z" id="XMLID_728_" style="fill:rgb(237, 102, 63);animation-play-state:paused" ></path>
<path fill="#cccccb" d="M36.241 50.066c0 .499-.2.998-.601 1.365L10.4 82.641v5.568c0 1.612 1.916 2.455 3.104 1.365L46.307 51.43c.4-.367.601-.866.601-1.365s-.2-.998-.601-1.365L13.504 10.556c-1.188-1.089-3.104-.246-3.104 1.366v5.568L35.64 48.7c.401.367.601.867.601 1.366z" id="XMLID_727_" style="fill:rgb(250, 161, 135);animation-play-state:paused" ></path>
<metadata xmlns:d="https://loading.io/stock/" style="animation-play-state:paused" ><d:name style="animation-play-state:paused" >right</d:name>


<d:tags style="animation-play-state:paused" >east,foward,redo,next,direction,way,turn,chevron,dart,right,arrow</d:tags>


<d:license style="animation-play-state:paused" >by</d:license>


<d:slug style="animation-play-state:paused" >2yncid</d:slug></metadata></g><!-- generated by https://loading.io/ --></svg>