<svg class="lds-spinner" width="131px"  height="131px"  xmlns="http://www.w3.org/2000/svg" xmlns:xlink="http://www.w3.org/1999/xlink" viewBox="0 0 100 100" preserveAspectRatio="xMidYMid" style="background: none; shape-rendering: auto;"><g transform="rotate(0 50 50)" class="">
  <rect x="47" y="22.5" rx="2.82" ry="1.35" width="6" height="15" fill="#433f3f" class="">
    <animate attributeName="opacity" values="1;0" keyTimes="0;1" dur="0.5s" begin="-0.46153846153846156s" repeatCount="indefinite" class=""></animate>
  </rect>
</g><g transform="rotate(27.692307692307693 50 50)" class="">
  <rect x="47" y="22.5" rx="2.82" ry="1.35" width="6" height="15" fill="#433f3f" class="">
    <animate attributeName="opacity" values="1;0" keyTimes="0;1" dur="0.5s" begin="-0.4230769230769231s" repeatCount="indefinite" class=""></animate>
  </rect>
</g><g transform="rotate(55.38461538461539 50 50)" class="">
  <rect x="47" y="22.5" rx="2.82" ry="1.35" width="6" height="15" fill="#433f3f" class="">
    <animate attributeName="opacity" values="1;0" keyTimes="0;1" dur="0.5s" begin="-0.38461538461538464s" repeatCount="indefinite" class=""></animate>
  </rect>
</g><g transform="rotate(83.07692307692308 50 50)" class="">
  <rect x="47" y="22.5" rx="2.82" ry="1.35" width="6" height="15" fill="#433f3f" class="">
    <animate attributeName="opacity" values="1;0" keyTimes="0;1" dur="0.5s" begin="-0.34615384615384615s" repeatCount="indefinite" class=""></animate>
  </rect>
</g><g transform="rotate(110.76923076923077 50 50)" class="">
  <rect x="47" y="22.5" rx="2.82" ry="1.35" width="6" height="15" fill="#433f3f" class="">
    <animate attributeName="opacity" values="1;0" keyTimes="0;1" dur="0.5s" begin="-0.3076923076923077s" repeatCount="indefinite" class=""></animate>
  </rect>
</g><g transform="rotate(138.46153846153845 50 50)" class="">
  <rect x="47" y="22.5" rx="2.82" ry="1.35" width="6" height="15" fill="#433f3f" class="">
    <animate attributeName="opacity" values="1;0" keyTimes="0;1" dur="0.5s" begin="-0.2692307692307692s" repeatCount="indefinite" class=""></animate>
  </rect>
</g><g transform="rotate(166.15384615384616 50 50)" class="">
  <rect x="47" y="22.5" rx="2.82" ry="1.35" width="6" height="15" fill="#433f3f" class="">
    <animate attributeName="opacity" values="1;0" keyTimes="0;1" dur="0.5s" begin="-0.23076923076923078s" repeatCount="indefinite" class=""></animate>
  </rect>
</g><g transform="rotate(193.84615384615384 50 50)" class="">
  <rect x="47" y="22.5" rx="2.82" ry="1.35" width="6" height="15" fill="#433f3f" class="">
    <animate attributeName="opacity" values="1;0" keyTimes="0;1" dur="0.5s" begin="-0.19230769230769232s" repeatCount="indefinite" class=""></animate>
  </rect>
</g><g transform="rotate(221.53846153846155 50 50)" class="">
  <rect x="47" y="22.5" rx="2.82" ry="1.35" width="6" height="15" fill="#433f3f" class="">
    <animate attributeName="opacity" values="1;0" keyTimes="0;1" dur="0.5s" begin="-0.15384615384615385s" repeatCount="indefinite" class=""></animate>
  </rect>
</g><g transform="rotate(249.23076923076923 50 50)" class="">
  <rect x="47" y="22.5" rx="2.82" ry="1.35" width="6" height="15" fill="#433f3f" class="">
    <animate attributeName="opacity" values="1;0" keyTimes="0;1" dur="0.5s" begin="-0.11538461538461539s" repeatCount="indefinite" class=""></animate>
  </rect>
</g><g transform="rotate(276.9230769230769 50 50)" class="">
  <rect x="47" y="22.5" rx="2.82" ry="1.35" width="6" height="15" fill="#433f3f" class="">
    <animate attributeName="opacity" values="1;0" keyTimes="0;1" dur="0.5s" begin="-0.07692307692307693s" repeatCount="indefinite" class=""></animate>
  </rect>
</g><g transform="rotate(304.61538461538464 50 50)" class="">
  <rect x="47" y="22.5" rx="2.82" ry="1.35" width="6" height="15" fill="#433f3f" class="">
    <animate attributeName="opacity" values="1;0" keyTimes="0;1" dur="0.5s" begin="-0.038461538461538464s" repeatCount="indefinite" class=""></animate>
  </rect>
</g><g transform="rotate(332.3076923076923 50 50)" class="">
  <rect x="47" y="22.5" rx="2.82" ry="1.35" width="6" height="15" fill="#433f3f" class="">
    <animate attributeName="opacity" values="1;0" keyTimes="0;1" dur="0.5s" begin="0s" repeatCount="indefinite" class=""></animate>
  </rect>
</g></svg>